<svg width="97" height="41" viewBox="0 0 97 41" fill="none" xmlns="http://www.w3.org/2000/svg">
<rect x="58" y="39.8316" width="38" height="38" rx="19" transform="rotate(-90 58 39.8316)" stroke="#0C0B0B" stroke-width="2"/>
<path d="M82.3333 20.6048H83.5404L82.6869 19.7512L79.2765 16.3408L78.9229 16.6944L79.2765 16.3408C79.1879 16.2523 79.1879 16.1088 79.2765 16.0202C79.365 15.9317 79.5086 15.9317 79.5971 16.0202L84.2481 20.6712C84.3367 20.7597 84.3367 20.9033 84.2481 20.9918L84.6017 21.3454L84.2481 20.9918L79.5974 25.6427C79.5529 25.6872 79.4956 25.7092 79.4369 25.7092C79.3783 25.7092 79.321 25.6871 79.2766 25.6428C79.188 25.5542 79.188 25.4107 79.2766 25.3222L79.2766 25.3221L82.6869 21.9118L83.5404 21.0582H82.3333H69.9121C69.7869 21.0582 69.6854 20.9566 69.6854 20.8315C69.6854 20.7063 69.7869 20.6048 69.9121 20.6048H82.3333Z" fill="#0C0B0B" stroke="#0C0B0B"/>
<rect x="39.8994" y="1.83163" width="38" height="38" rx="19" transform="rotate(90 39.8994 1.83163)" stroke="#0C0B0B" stroke-width="2"/>
<path d="M15.5661 21.0585L14.359 21.0585L15.2125 21.912L18.6229 25.3224L18.9765 24.9689L18.6229 25.3224C18.7115 25.411 18.7115 25.5545 18.6229 25.6431C18.5344 25.7316 18.3908 25.7316 18.3023 25.6431L13.6513 20.9921C13.5627 20.9035 13.5627 20.76 13.6513 20.6714L13.2978 20.3179L13.6513 20.6714L18.302 16.0206C18.3466 15.9761 18.4038 15.9541 18.4625 15.9541C18.5212 15.9541 18.5784 15.9761 18.6228 16.0205C18.7114 16.109 18.7114 16.2526 18.6228 16.3411L18.6228 16.3411L15.2125 19.7515L14.359 20.6051L15.5661 20.6051L27.9873 20.6051C28.1125 20.6051 28.214 20.7066 28.214 20.8318C28.214 20.9569 28.1125 21.0585 27.9873 21.0585L15.5661 21.0585Z" fill="#0C0B0B" stroke="#0C0B0B"/>
</svg>
