<svg width="41" height="41" viewBox="0 0 41 41" fill="none" xmlns="http://www.w3.org/2000/svg">
<path d="M14.3384 18.5016C14.3384 18.9628 14.2157 19.3733 13.9702 19.733C13.729 20.0927 13.401 20.3741 12.9863 20.5772C13.4688 20.7846 13.8496 21.0872 14.1289 21.485C14.4124 21.8827 14.5542 22.3334 14.5542 22.837C14.5542 23.6368 14.2834 24.2737 13.7417 24.7477C13.2043 25.2216 12.4954 25.4586 11.6152 25.4586C10.7266 25.4586 10.0135 25.2216 9.47607 24.7477C8.94287 24.2695 8.67627 23.6326 8.67627 22.837C8.67627 22.3377 8.81169 21.887 9.08252 21.485C9.35758 21.0829 9.73633 20.7782 10.2188 20.5709C9.80827 20.3678 9.48454 20.0864 9.24756 19.7267C9.01058 19.367 8.89209 18.9586 8.89209 18.5016C8.89209 17.7229 9.14176 17.1051 9.64111 16.648C10.1405 16.191 10.7985 15.9625 11.6152 15.9625C12.4277 15.9625 13.0837 16.191 13.583 16.648C14.0866 17.1051 14.3384 17.7229 14.3384 18.5016ZM13.3799 22.8116C13.3799 22.2953 13.2148 21.8743 12.8848 21.5484C12.5589 21.2226 12.1315 21.0597 11.6025 21.0597C11.0736 21.0597 10.6483 21.2205 10.3267 21.5421C10.0093 21.8637 9.85059 22.2869 9.85059 22.8116C9.85059 23.3364 10.005 23.749 10.314 24.0494C10.6271 24.3499 11.0609 24.5001 11.6152 24.5001C12.1654 24.5001 12.597 24.3499 12.9102 24.0494C13.2233 23.7447 13.3799 23.3321 13.3799 22.8116ZM11.6152 16.9273C11.154 16.9273 10.7795 17.0712 10.4917 17.359C10.2082 17.6425 10.0664 18.0297 10.0664 18.5206C10.0664 18.9903 10.2061 19.3712 10.4854 19.6632C10.7689 19.9509 11.1455 20.0948 11.6152 20.0948C12.085 20.0948 12.4595 19.9509 12.7388 19.6632C13.0223 19.3712 13.1641 18.9903 13.1641 18.5206C13.1641 18.0509 13.0181 17.6679 12.7261 17.3717C12.4341 17.0754 12.0638 16.9273 11.6152 16.9273ZM17.7407 20.1393H18.623C19.1774 20.1308 19.6133 19.9848 19.9307 19.7013C20.248 19.4177 20.4067 19.0348 20.4067 18.5523C20.4067 17.469 19.8672 16.9273 18.7881 16.9273C18.2803 16.9273 17.874 17.0733 17.5693 17.3653C17.2689 17.6531 17.1187 18.0361 17.1187 18.5143H15.9443C15.9443 17.7822 16.2109 17.1749 16.7441 16.6925C17.2816 16.2058 17.9629 15.9625 18.7881 15.9625C19.6598 15.9625 20.3433 16.1931 20.8384 16.6544C21.3335 17.1157 21.5811 17.7568 21.5811 18.5777C21.5811 18.9797 21.4499 19.3691 21.1875 19.7457C20.9294 20.1223 20.576 20.4037 20.1274 20.5899C20.6353 20.7507 21.0267 21.0173 21.3018 21.3897C21.5811 21.7621 21.7207 22.2171 21.7207 22.7545C21.7207 23.5839 21.4499 24.242 20.9082 24.7286C20.3665 25.2153 19.6619 25.4586 18.7944 25.4586C17.9269 25.4586 17.2202 25.2237 16.6743 24.754C16.1326 24.2843 15.8618 23.6643 15.8618 22.8941H17.0425C17.0425 23.3808 17.2012 23.7701 17.5186 24.0621C17.8359 24.3541 18.2612 24.5001 18.7944 24.5001C19.3615 24.5001 19.7952 24.352 20.0957 24.0558C20.3962 23.7595 20.5464 23.3342 20.5464 22.7799C20.5464 22.2424 20.3813 21.8298 20.0513 21.5421C19.7212 21.2543 19.2451 21.1062 18.623 21.0977H17.7407V20.1393ZM23.2314 17.8668C23.2314 17.3124 23.4071 16.8554 23.7583 16.4957C24.1138 16.136 24.5687 15.9561 25.123 15.9561C25.6859 15.9561 26.1408 16.1381 26.4878 16.502C26.839 16.8617 27.0146 17.3294 27.0146 17.9049V18.3556C27.0146 18.9142 26.8369 19.3712 26.4814 19.7267C26.1302 20.0779 25.6816 20.2535 25.1357 20.2535C24.5856 20.2535 24.1307 20.0779 23.771 19.7267C23.4113 19.3712 23.2314 18.8993 23.2314 18.3111V17.8668ZM24.1074 18.3556C24.1074 18.6856 24.2005 18.9586 24.3867 19.1744C24.5729 19.386 24.8226 19.4918 25.1357 19.4918C25.4362 19.4918 25.6774 19.3881 25.8594 19.1808C26.0456 18.9734 26.1387 18.6899 26.1387 18.3302V17.8668C26.1387 17.5367 26.0477 17.2638 25.8657 17.0479C25.6838 16.8321 25.4362 16.7242 25.123 16.7242C24.8099 16.7242 24.5623 16.8321 24.3804 17.0479C24.1984 17.2638 24.1074 17.5452 24.1074 17.8922V18.3556ZM27.7319 23.0655C27.7319 22.5112 27.9076 22.0562 28.2588 21.7008C28.6143 21.3411 29.0692 21.1612 29.6235 21.1612C30.1779 21.1612 30.6328 21.339 30.9883 21.6944C31.3438 22.0499 31.5215 22.5217 31.5215 23.11V23.5606C31.5215 24.115 31.3438 24.572 30.9883 24.9317C30.637 25.2872 30.1864 25.4649 29.6362 25.4649C29.0861 25.4649 28.6312 25.2893 28.2715 24.9381C27.9118 24.5826 27.7319 24.1108 27.7319 23.5226V23.0655ZM28.6079 23.5606C28.6079 23.8949 28.701 24.17 28.8872 24.3858C29.0734 24.5974 29.3231 24.7032 29.6362 24.7032C29.9409 24.7032 30.1842 24.5995 30.3662 24.3922C30.5482 24.1806 30.6392 23.8949 30.6392 23.5352V23.0655C30.6392 22.7312 30.5461 22.4583 30.3599 22.2467C30.1779 22.0351 29.9325 21.9293 29.6235 21.9293C29.3231 21.9293 29.0776 22.0351 28.8872 22.2467C28.701 22.454 28.6079 22.7354 28.6079 23.0909V23.5606ZM25.4023 24.6334L24.7358 24.2144L29.249 16.9908L29.9155 17.4098L25.4023 24.6334Z" fill="#0C0B0B"/>
<mask id="path-2-inside-1_39704_2" fill="white">
<path d="M39.1012 20.8316C39.8546 20.8316 40.4702 21.4432 40.4188 22.1948C40.164 25.9263 38.8667 29.5216 36.6618 32.5652C34.1894 35.9779 30.7022 38.5225 26.6978 39.8358C22.6934 41.149 18.3765 41.1638 14.3632 39.878C10.35 38.5922 6.84538 36.0716 4.34968 32.6759C1.85397 29.2801 0.494677 25.1828 0.465802 20.9687C0.436926 16.7546 1.73994 12.639 4.18888 9.20937C6.63782 5.77974 10.1075 3.21132 14.1028 1.87067C17.6659 0.675049 21.4845 0.510415 25.1219 1.38125C25.8546 1.55668 26.2544 2.3268 26.0295 3.04585V3.04585C25.8045 3.7649 25.04 4.15981 24.3055 3.99229C21.2189 3.28839 17.9887 3.44461 14.9708 4.45729C11.5205 5.61505 8.52414 7.83309 6.40928 10.7949C4.29442 13.7566 3.16916 17.3107 3.1941 20.95C3.21904 24.5892 4.3929 28.1276 6.54814 31.0601C8.70339 33.9926 11.7299 36.1694 15.1957 37.2797C18.6615 38.3901 22.3895 38.3773 25.8476 37.2432C29.3057 36.1092 32.3172 33.9117 34.4523 30.9645C36.3198 28.3866 37.4334 25.3504 37.6831 22.1944C37.7426 21.4434 38.3477 20.8316 39.1012 20.8316V20.8316Z"/>
</mask>
<path d="M39.1012 20.8316C39.8546 20.8316 40.4702 21.4432 40.4188 22.1948C40.164 25.9263 38.8667 29.5216 36.6618 32.5652C34.1894 35.9779 30.7022 38.5225 26.6978 39.8358C22.6934 41.149 18.3765 41.1638 14.3632 39.878C10.35 38.5922 6.84538 36.0716 4.34968 32.6759C1.85397 29.2801 0.494677 25.1828 0.465802 20.9687C0.436926 16.7546 1.73994 12.639 4.18888 9.20937C6.63782 5.77974 10.1075 3.21132 14.1028 1.87067C17.6659 0.675049 21.4845 0.510415 25.1219 1.38125C25.8546 1.55668 26.2544 2.3268 26.0295 3.04585V3.04585C25.8045 3.7649 25.04 4.15981 24.3055 3.99229C21.2189 3.28839 17.9887 3.44461 14.9708 4.45729C11.5205 5.61505 8.52414 7.83309 6.40928 10.7949C4.29442 13.7566 3.16916 17.3107 3.1941 20.95C3.21904 24.5892 4.3929 28.1276 6.54814 31.0601C8.70339 33.9926 11.7299 36.1694 15.1957 37.2797C18.6615 38.3901 22.3895 38.3773 25.8476 37.2432C29.3057 36.1092 32.3172 33.9117 34.4523 30.9645C36.3198 28.3866 37.4334 25.3504 37.6831 22.1944C37.7426 21.4434 38.3477 20.8316 39.1012 20.8316V20.8316Z" stroke="#0C0B0B" stroke-width="4" mask="url(#path-2-inside-1_39704_2)"/>
</svg>
