<svg width="16" height="17" viewBox="0 0 16 17" fill="none" xmlns="http://www.w3.org/2000/svg">
<g clip-path="url(#clip0_1_276)">
<path d="M12.3211 8.28057C12.2493 9.32266 11.6551 10.0543 10.969 10.3643C10.2416 10.693 9.50627 10.5117 9.13916 9.91307C8.5381 8.93288 8.95111 8.25069 9.3505 7.59094C9.80335 6.84285 10.3167 5.99491 9.82434 4.34597C9.43567 3.04419 8.67449 1.95129 7.56189 1.0976C7.21505 0.831505 6.88611 0.63138 6.61916 0.488068C6.99201 1.39563 7.47686 3.08447 6.9704 4.95035C6.64918 6.13388 5.80023 7.03076 4.97922 7.8981C3.89789 9.04054 2.77968 10.2218 2.77968 12.1093C2.77968 13.5735 3.28983 14.74 4.29591 15.5763C5.05778 16.2095 5.8352 16.4561 5.84295 16.458H7.69803L7.6592 16.4573C7.65205 16.4517 6.94531 15.8939 6.93314 15.2541C6.92747 14.9551 7.08439 14.6682 7.39956 14.4015C7.87295 14.0009 8.13314 13.5696 8.19503 13.083C8.23289 12.7853 8.19462 12.4707 8.0783 12.1311C8.86348 12.4603 9.67567 13.1793 9.9509 14.0719C10.1981 14.8734 9.96943 15.6977 9.2903 16.458H11.3205C12.6504 15.4162 13.399 14.1677 13.5458 12.7471C13.7329 10.9359 12.9048 9.23007 12.3211 8.28057Z" fill="#0C0B0B"/>
<path d="M7.69805 16.458L9.26357 16.4881C9.27265 16.4781 9.28135 16.468 9.29029 16.458H7.69805Z" fill="#0C0B0B"/>
</g>
<defs>
<clipPath id="clip0_1_276">
<rect width="15.2" height="16" fill="white" transform="translate(0.576172 0.488068)"/>
</clipPath>
</defs>
</svg>
