<svg width="22" height="22" viewBox="0 0 22 22" fill="none" xmlns="http://www.w3.org/2000/svg">
<path d="M14.5061 3.0893C11.3764 -0.040386 6.28259 -0.040386 3.15291 3.0893C0.0239012 6.21966 0.0239012 11.3128 3.15291 14.4431C5.93997 17.2295 10.2807 17.528 13.4083 15.3523C13.4741 15.6637 13.6248 15.9608 13.867 16.203L18.4248 20.7608C19.089 21.4237 20.1623 21.4237 20.8231 20.7608C21.4866 20.0973 21.4866 19.024 20.8231 18.3625L16.2653 13.8034C16.0244 13.5632 15.7266 13.4119 15.4152 13.3461C17.5923 10.2178 17.2938 5.87772 14.5061 3.0893ZM13.0671 13.0041C10.7305 15.3407 6.92779 15.3407 4.5919 13.0041C2.25668 10.6676 2.25668 6.86554 4.5919 4.52897C6.92779 2.19307 10.7305 2.19307 13.0671 4.52897C15.4037 6.86554 15.4037 10.6676 13.0671 13.0041Z" fill="#0C0B0B"/>
</svg>
