<svg width="828" height="199" viewBox="0 0 828 199" fill="none" xmlns="http://www.w3.org/2000/svg">
<rect y="7" width="828" height="190.847" rx="14" fill="#F5F5F7"/>
<path d="M24.604 98.32C24.868 98.368 25.192 98.416 25.576 98.464C25.96 98.488 26.32 98.5 26.656 98.5C27.472 98.5 28.216 98.38 28.888 98.14C29.584 97.9 30.172 97.528 30.652 97.024C31.156 96.52 31.54 95.872 31.804 95.08C32.092 94.264 32.236 93.292 32.236 92.164C32.236 90.004 31.732 88.384 30.724 87.304C29.716 86.2 28.372 85.648 26.692 85.648C26.356 85.648 26.008 85.66 25.648 85.684C25.312 85.708 24.964 85.744 24.604 85.792V98.32ZM26.62 103.576C26.212 103.576 25.744 103.564 25.216 103.54C24.688 103.516 24.136 103.468 23.56 103.396C23.008 103.324 22.444 103.228 21.868 103.108C21.316 103.012 20.8 102.868 20.32 102.676C19 102.172 18.34 101.296 18.34 100.048V83.236C18.34 82.732 18.472 82.348 18.736 82.084C19.024 81.796 19.408 81.568 19.888 81.4C20.92 81.064 22.012 80.848 23.164 80.752C24.316 80.632 25.348 80.572 26.26 80.572C28.132 80.572 29.824 80.8 31.336 81.256C32.872 81.712 34.18 82.42 35.26 83.38C36.364 84.316 37.216 85.504 37.816 86.944C38.416 88.384 38.716 90.088 38.716 92.056C38.716 93.976 38.428 95.656 37.852 97.096C37.276 98.512 36.448 99.712 35.368 100.696C34.312 101.656 33.04 102.376 31.552 102.856C30.064 103.336 28.42 103.576 26.62 103.576ZM46.7145 81.832C47.1225 81.592 47.7345 81.364 48.5505 81.148C49.3905 80.932 50.2305 80.824 51.0705 80.824C52.2705 80.824 53.3265 81.004 54.2385 81.364C55.1745 81.7 55.7745 82.24 56.0385 82.984C56.4705 84.232 56.9385 85.684 57.4425 87.34C57.9465 88.996 58.4505 90.712 58.9545 92.488C59.4585 94.24 59.9505 95.98 60.4305 97.708C60.9105 99.412 61.3305 100.924 61.6905 102.244C61.4025 102.58 60.9705 102.844 60.3945 103.036C59.8185 103.252 59.1345 103.36 58.3425 103.36C57.7665 103.36 57.2745 103.312 56.8665 103.216C56.4825 103.12 56.1585 102.976 55.8945 102.784C55.6545 102.592 55.4505 102.34 55.2825 102.028C55.1385 101.716 55.0065 101.356 54.8865 100.948L54.2385 98.464H47.7225C47.5305 99.184 47.3385 99.928 47.1465 100.696C46.9545 101.464 46.7625 102.208 46.5705 102.928C46.2345 103.048 45.8745 103.144 45.4905 103.216C45.1305 103.312 44.6865 103.36 44.1585 103.36C42.9345 103.36 42.0225 103.156 41.4225 102.748C40.8465 102.316 40.5585 101.728 40.5585 100.984C40.5585 100.648 40.6065 100.312 40.7025 99.976C40.7985 99.64 40.9065 99.244 41.0265 98.788C41.1945 98.14 41.4225 97.336 41.7105 96.376C42.0225 95.416 42.3585 94.384 42.7185 93.28C43.0785 92.152 43.4625 91 43.8705 89.824C44.2785 88.648 44.6625 87.544 45.0225 86.512C45.3825 85.456 45.7065 84.52 45.9945 83.704C46.3065 82.888 46.5465 82.264 46.7145 81.832ZM51.0345 86.476C50.6985 87.484 50.3145 88.612 49.8825 89.86C49.4745 91.084 49.1025 92.332 48.7665 93.604H53.2305C52.8945 92.308 52.5465 91.048 52.1865 89.824C51.8505 88.576 51.5385 87.46 51.2505 86.476H51.0345ZM70.9734 94.324C69.9174 93.964 68.9574 93.604 68.0934 93.244C67.2294 92.86 66.4854 92.404 65.8614 91.876C65.2374 91.348 64.7454 90.724 64.3854 90.004C64.0494 89.26 63.8814 88.36 63.8814 87.304C63.8814 85.264 64.6614 83.632 66.2214 82.408C67.8054 81.184 70.0134 80.572 72.8454 80.572C73.8774 80.572 74.8374 80.644 75.7254 80.788C76.6134 80.932 77.3694 81.16 77.9934 81.472C78.6414 81.76 79.1454 82.144 79.5054 82.624C79.8654 83.08 80.0454 83.62 80.0454 84.244C80.0454 84.868 79.9014 85.408 79.6134 85.864C79.3254 86.296 78.9774 86.668 78.5694 86.98C78.0414 86.644 77.3334 86.356 76.4454 86.116C75.5574 85.852 74.5854 85.72 73.5294 85.72C72.4494 85.72 71.6574 85.876 71.1534 86.188C70.6494 86.476 70.3974 86.848 70.3974 87.304C70.3974 87.664 70.5534 87.964 70.8654 88.204C71.1774 88.42 71.6454 88.624 72.2694 88.816L74.1774 89.428C76.4334 90.148 78.1614 91.072 79.3614 92.2C80.5854 93.304 81.1974 94.816 81.1974 96.736C81.1974 98.776 80.3934 100.432 78.7854 101.704C77.1774 102.952 74.8134 103.576 71.6934 103.576C70.5894 103.576 69.5574 103.48 68.5974 103.288C67.6614 103.12 66.8334 102.868 66.1134 102.532C65.4174 102.172 64.8654 101.74 64.4574 101.236C64.0734 100.708 63.8814 100.108 63.8814 99.436C63.8814 98.74 64.0854 98.152 64.4934 97.672C64.9014 97.168 65.3454 96.784 65.8254 96.52C66.4974 97.048 67.3134 97.504 68.2734 97.888C69.2574 98.272 70.3254 98.464 71.4774 98.464C72.6534 98.464 73.4814 98.284 73.9614 97.924C74.4414 97.564 74.6814 97.144 74.6814 96.664C74.6814 96.184 74.4894 95.824 74.1054 95.584C73.7214 95.32 73.1814 95.068 72.4854 94.828L70.9734 94.324ZM104.122 102.856C103.858 102.928 103.438 103 102.862 103.072C102.31 103.144 101.758 103.18 101.206 103.18C100.654 103.18 100.162 103.132 99.7295 103.036C99.3215 102.964 98.9735 102.82 98.6855 102.604C98.3975 102.388 98.1815 102.088 98.0375 101.704C97.8935 101.32 97.8215 100.816 97.8215 100.192V94.576H90.9095V102.856C90.6455 102.928 90.2255 103 89.6495 103.072C89.0975 103.144 88.5455 103.18 87.9935 103.18C87.4415 103.18 86.9495 103.132 86.5175 103.036C86.1095 102.964 85.7615 102.82 85.4735 102.604C85.1855 102.388 84.9695 102.088 84.8255 101.704C84.6815 101.32 84.6095 100.816 84.6095 100.192V81.184C84.8735 81.136 85.2935 81.076 85.8695 81.004C86.4455 80.908 86.9975 80.86 87.5255 80.86C88.0775 80.86 88.5575 80.908 88.9655 81.004C89.3975 81.076 89.7575 81.22 90.0455 81.436C90.3335 81.652 90.5495 81.952 90.6935 82.336C90.8375 82.72 90.9095 83.224 90.9095 83.848V89.608H97.8215V81.184C98.0855 81.136 98.5055 81.076 99.0815 81.004C99.6575 80.908 100.21 80.86 100.738 80.86C101.29 80.86 101.77 80.908 102.178 81.004C102.61 81.076 102.97 81.22 103.258 81.436C103.546 81.652 103.762 81.952 103.906 82.336C104.05 82.72 104.122 83.224 104.122 83.848V102.856ZM114.917 98.5C115.253 98.596 115.685 98.668 116.213 98.716C116.741 98.74 117.245 98.752 117.725 98.752C118.685 98.752 119.477 98.56 120.101 98.176C120.749 97.768 121.073 97.144 121.073 96.304C121.073 95.512 120.809 94.948 120.281 94.612C119.753 94.276 118.949 94.108 117.869 94.108H114.917V98.5ZM114.917 89.716H117.545C118.577 89.716 119.321 89.524 119.777 89.14C120.257 88.756 120.497 88.192 120.497 87.448C120.497 86.8 120.221 86.284 119.669 85.9C119.141 85.516 118.337 85.324 117.257 85.324C116.897 85.324 116.477 85.336 115.997 85.36C115.541 85.384 115.181 85.42 114.917 85.468V89.716ZM117.257 103.576C116.849 103.576 116.369 103.564 115.817 103.54C115.265 103.516 114.689 103.468 114.089 103.396C113.513 103.324 112.937 103.228 112.361 103.108C111.785 103.012 111.257 102.868 110.777 102.676C109.457 102.172 108.797 101.296 108.797 100.048V83.236C108.797 82.732 108.929 82.348 109.193 82.084C109.481 81.796 109.865 81.568 110.345 81.4C111.161 81.112 112.181 80.908 113.405 80.788C114.629 80.644 115.889 80.572 117.185 80.572C120.257 80.572 122.621 81.088 124.277 82.12C125.933 83.152 126.761 84.748 126.761 86.908C126.761 87.988 126.449 88.924 125.825 89.716C125.201 90.484 124.361 91.048 123.305 91.408C124.505 91.744 125.501 92.356 126.293 93.244C127.109 94.132 127.517 95.248 127.517 96.592C127.517 98.968 126.629 100.732 124.853 101.884C123.101 103.012 120.569 103.576 117.257 103.576ZM130.006 92.056C130.006 90.184 130.294 88.528 130.87 87.088C131.47 85.648 132.274 84.448 133.282 83.488C134.314 82.504 135.514 81.76 136.882 81.256C138.274 80.752 139.774 80.5 141.382 80.5C142.99 80.5 144.478 80.752 145.846 81.256C147.238 81.76 148.45 82.504 149.482 83.488C150.514 84.448 151.318 85.648 151.894 87.088C152.494 88.528 152.794 90.184 152.794 92.056C152.794 93.928 152.506 95.596 151.93 97.06C151.354 98.5 150.55 99.712 149.518 100.696C148.51 101.656 147.31 102.388 145.918 102.892C144.526 103.396 143.014 103.648 141.382 103.648C139.75 103.648 138.238 103.396 136.846 102.892C135.454 102.364 134.254 101.608 133.246 100.624C132.238 99.64 131.446 98.428 130.87 96.988C130.294 95.548 130.006 93.904 130.006 92.056ZM136.486 92.056C136.486 94.24 136.93 95.872 137.818 96.952C138.706 98.032 139.894 98.572 141.382 98.572C142.894 98.572 144.094 98.032 144.982 96.952C145.87 95.872 146.314 94.24 146.314 92.056C146.314 89.896 145.87 88.276 144.982 87.196C144.118 86.116 142.93 85.576 141.418 85.576C139.93 85.576 138.73 86.116 137.818 87.196C136.93 88.252 136.486 89.872 136.486 92.056ZM160.797 81.832C161.205 81.592 161.817 81.364 162.633 81.148C163.473 80.932 164.313 80.824 165.153 80.824C166.353 80.824 167.409 81.004 168.321 81.364C169.257 81.7 169.857 82.24 170.121 82.984C170.553 84.232 171.021 85.684 171.525 87.34C172.029 88.996 172.533 90.712 173.037 92.488C173.541 94.24 174.033 95.98 174.513 97.708C174.993 99.412 175.413 100.924 175.773 102.244C175.485 102.58 175.053 102.844 174.477 103.036C173.901 103.252 173.217 103.36 172.425 103.36C171.849 103.36 171.357 103.312 170.949 103.216C170.565 103.12 170.241 102.976 169.977 102.784C169.737 102.592 169.533 102.34 169.365 102.028C169.221 101.716 169.089 101.356 168.969 100.948L168.321 98.464H161.805C161.613 99.184 161.421 99.928 161.229 100.696C161.037 101.464 160.845 102.208 160.653 102.928C160.317 103.048 159.957 103.144 159.573 103.216C159.213 103.312 158.769 103.36 158.241 103.36C157.017 103.36 156.105 103.156 155.505 102.748C154.929 102.316 154.641 101.728 154.641 100.984C154.641 100.648 154.689 100.312 154.785 99.976C154.881 99.64 154.989 99.244 155.109 98.788C155.277 98.14 155.505 97.336 155.793 96.376C156.105 95.416 156.441 94.384 156.801 93.28C157.161 92.152 157.545 91 157.953 89.824C158.361 88.648 158.744 87.544 159.104 86.512C159.465 85.456 159.789 84.52 160.077 83.704C160.389 82.888 160.629 82.264 160.797 81.832ZM165.117 86.476C164.781 87.484 164.397 88.612 163.965 89.86C163.557 91.084 163.185 92.332 162.849 93.604H167.313C166.977 92.308 166.629 91.048 166.269 89.824C165.933 88.576 165.621 87.46 165.333 86.476H165.117ZM184.987 95.944V102.856C184.723 102.928 184.303 103 183.727 103.072C183.175 103.144 182.623 103.18 182.071 103.18C181.519 103.18 181.027 103.132 180.595 103.036C180.187 102.964 179.839 102.82 179.551 102.604C179.287 102.388 179.083 102.088 178.939 101.704C178.795 101.32 178.723 100.816 178.723 100.192V83.236C178.723 82.732 178.855 82.348 179.119 82.084C179.407 81.796 179.791 81.568 180.271 81.4C181.087 81.112 182.035 80.908 183.115 80.788C184.195 80.644 185.347 80.572 186.571 80.572C189.883 80.572 192.379 81.268 194.059 82.66C195.739 84.052 196.579 85.936 196.579 88.312C196.579 89.8 196.195 91.072 195.427 92.128C194.659 93.184 193.747 94 192.691 94.576C193.555 95.752 194.407 96.856 195.247 97.888C196.087 98.92 196.747 99.856 197.227 100.696C196.987 101.536 196.543 102.184 195.895 102.64C195.271 103.072 194.563 103.288 193.771 103.288C193.243 103.288 192.787 103.228 192.403 103.108C192.019 102.988 191.683 102.82 191.395 102.604C191.107 102.388 190.843 102.124 190.603 101.812C190.363 101.5 190.135 101.164 189.919 100.804L186.895 95.944H184.987ZM187.255 91.156C188.167 91.156 188.887 90.928 189.415 90.472C189.943 89.992 190.207 89.296 190.207 88.384C190.207 87.472 189.907 86.788 189.307 86.332C188.731 85.852 187.807 85.612 186.535 85.612C186.175 85.612 185.887 85.624 185.671 85.648C185.455 85.672 185.215 85.708 184.951 85.756V91.156H187.255ZM206.924 98.32C207.188 98.368 207.512 98.416 207.896 98.464C208.28 98.488 208.64 98.5 208.976 98.5C209.792 98.5 210.536 98.38 211.208 98.14C211.904 97.9 212.492 97.528 212.972 97.024C213.476 96.52 213.86 95.872 214.124 95.08C214.412 94.264 214.556 93.292 214.556 92.164C214.556 90.004 214.052 88.384 213.044 87.304C212.036 86.2 210.692 85.648 209.012 85.648C208.676 85.648 208.328 85.66 207.968 85.684C207.632 85.708 207.284 85.744 206.924 85.792V98.32ZM208.94 103.576C208.532 103.576 208.064 103.564 207.536 103.54C207.008 103.516 206.456 103.468 205.88 103.396C205.328 103.324 204.764 103.228 204.188 103.108C203.636 103.012 203.12 102.868 202.64 102.676C201.32 102.172 200.66 101.296 200.66 100.048V83.236C200.66 82.732 200.792 82.348 201.056 82.084C201.344 81.796 201.728 81.568 202.208 81.4C203.24 81.064 204.332 80.848 205.484 80.752C206.636 80.632 207.668 80.572 208.58 80.572C210.452 80.572 212.144 80.8 213.656 81.256C215.192 81.712 216.5 82.42 217.58 83.38C218.684 84.316 219.536 85.504 220.136 86.944C220.736 88.384 221.036 90.088 221.036 92.056C221.036 93.976 220.748 95.656 220.172 97.096C219.596 98.512 218.768 99.712 217.688 100.696C216.632 101.656 215.36 102.376 213.872 102.856C212.384 103.336 210.74 103.576 208.94 103.576ZM224.061 96.304C223.893 96.04 223.737 95.692 223.593 95.26C223.449 94.828 223.377 94.372 223.377 93.892C223.377 93.004 223.581 92.368 223.989 91.984C224.397 91.576 224.925 91.372 225.573 91.372H233.277C233.421 91.636 233.565 91.984 233.709 92.416C233.877 92.848 233.961 93.304 233.961 93.784C233.961 94.672 233.757 95.32 233.349 95.728C232.941 96.112 232.413 96.304 231.765 96.304H224.061ZM247.443 86.512C247.707 86.392 248.115 86.26 248.667 86.116C249.243 85.948 249.819 85.864 250.395 85.864C251.403 85.864 252.243 86.02 252.915 86.332C253.587 86.62 253.995 87.052 254.139 87.628C254.403 88.612 254.643 89.536 254.859 90.4C255.099 91.24 255.327 92.056 255.543 92.848C255.759 93.616 255.963 94.384 256.155 95.152C256.371 95.92 256.575 96.724 256.767 97.564H256.947C257.163 96.1 257.355 94.708 257.523 93.388C257.691 92.044 257.847 90.736 257.991 89.464C258.135 88.168 258.279 86.896 258.423 85.648C258.567 84.376 258.711 83.092 258.855 81.796C259.743 81.292 260.691 81.04 261.699 81.04C262.587 81.04 263.355 81.232 264.003 81.616C264.651 82 264.975 82.648 264.975 83.56C264.975 84.088 264.915 84.844 264.795 85.828C264.699 86.788 264.555 87.868 264.363 89.068C264.195 90.268 263.991 91.528 263.751 92.848C263.511 94.168 263.259 95.428 262.995 96.628C262.731 97.828 262.455 98.92 262.167 99.904C261.903 100.864 261.651 101.608 261.411 102.136C261.051 102.472 260.463 102.748 259.647 102.964C258.831 103.18 257.991 103.288 257.127 103.288C255.999 103.288 255.039 103.144 254.247 102.856C253.479 102.544 253.011 102.112 252.843 101.56C252.531 100.6 252.195 99.46 251.835 98.14C251.475 96.82 251.091 95.368 250.683 93.784C250.347 95.344 249.999 96.868 249.639 98.356C249.279 99.844 248.955 101.104 248.667 102.136C248.307 102.472 247.767 102.748 247.047 102.964C246.327 103.18 245.535 103.288 244.671 103.288C243.591 103.288 242.607 103.144 241.719 102.856C240.855 102.544 240.291 102.112 240.027 101.56C239.811 101.128 239.571 100.492 239.307 99.652C239.067 98.788 238.815 97.816 238.551 96.736C238.287 95.632 238.011 94.444 237.723 93.172C237.459 91.9 237.207 90.628 236.967 89.356C236.751 88.084 236.547 86.848 236.355 85.648C236.163 84.424 236.019 83.308 235.923 82.3C236.259 81.988 236.727 81.7 237.327 81.436C237.927 81.172 238.575 81.04 239.271 81.04C240.183 81.04 240.927 81.244 241.503 81.652C242.103 82.036 242.475 82.696 242.619 83.632C243.003 86.08 243.315 88.12 243.555 89.752C243.819 91.384 244.023 92.728 244.167 93.784C244.335 94.816 244.455 95.62 244.527 96.196C244.599 96.772 244.671 97.228 244.743 97.564H244.923C245.139 96.604 245.343 95.716 245.535 94.9C245.727 94.084 245.919 93.268 246.111 92.452C246.327 91.612 246.543 90.724 246.759 89.788C246.975 88.828 247.203 87.736 247.443 86.512ZM274.742 102.856C274.478 102.928 274.058 103 273.482 103.072C272.93 103.144 272.378 103.18 271.826 103.18C271.274 103.18 270.782 103.132 270.35 103.036C269.942 102.964 269.594 102.82 269.306 102.604C269.018 102.388 268.802 102.088 268.658 101.704C268.514 101.32 268.442 100.816 268.442 100.192V81.184C268.706 81.136 269.126 81.076 269.702 81.004C270.278 80.908 270.83 80.86 271.358 80.86C271.91 80.86 272.39 80.908 272.798 81.004C273.23 81.076 273.59 81.22 273.878 81.436C274.166 81.652 274.382 81.952 274.526 82.336C274.67 82.72 274.742 83.224 274.742 83.848V102.856ZM278.402 86.224C278.234 85.96 278.078 85.6 277.934 85.144C277.79 84.688 277.718 84.208 277.718 83.704C277.718 82.768 277.922 82.096 278.33 81.688C278.762 81.28 279.314 81.076 279.986 81.076H295.682C295.85 81.34 296.006 81.7 296.15 82.156C296.294 82.612 296.366 83.092 296.366 83.596C296.366 84.532 296.15 85.204 295.718 85.612C295.31 86.02 294.77 86.224 294.098 86.224H290.102V102.856C289.838 102.928 289.418 103 288.842 103.072C288.29 103.144 287.738 103.18 287.186 103.18C286.634 103.18 286.142 103.132 285.71 103.036C285.302 102.964 284.954 102.82 284.666 102.604C284.378 102.388 284.162 102.088 284.018 101.704C283.874 101.32 283.802 100.816 283.802 100.192V86.224H278.402ZM318.926 102.856C318.662 102.928 318.242 103 317.666 103.072C317.114 103.144 316.562 103.18 316.01 103.18C315.458 103.18 314.966 103.132 314.534 103.036C314.126 102.964 313.778 102.82 313.49 102.604C313.202 102.388 312.986 102.088 312.842 101.704C312.698 101.32 312.626 100.816 312.626 100.192V94.576H305.714V102.856C305.45 102.928 305.03 103 304.454 103.072C303.902 103.144 303.35 103.18 302.798 103.18C302.246 103.18 301.754 103.132 301.322 103.036C300.914 102.964 300.566 102.82 300.278 102.604C299.99 102.388 299.774 102.088 299.63 101.704C299.486 101.32 299.414 100.816 299.414 100.192V81.184C299.678 81.136 300.098 81.076 300.674 81.004C301.25 80.908 301.802 80.86 302.33 80.86C302.882 80.86 303.362 80.908 303.77 81.004C304.202 81.076 304.562 81.22 304.85 81.436C305.138 81.652 305.354 81.952 305.498 82.336C305.642 82.72 305.714 83.224 305.714 83.848V89.608H312.626V81.184C312.89 81.136 313.31 81.076 313.886 81.004C314.462 80.908 315.014 80.86 315.542 80.86C316.094 80.86 316.574 80.908 316.982 81.004C317.414 81.076 317.774 81.22 318.062 81.436C318.35 81.652 318.566 81.952 318.71 82.336C318.854 82.72 318.926 83.224 318.926 83.848V102.856ZM323.026 96.304C322.858 96.04 322.702 95.692 322.558 95.26C322.414 94.828 322.342 94.372 322.342 93.892C322.342 93.004 322.546 92.368 322.954 91.984C323.362 91.576 323.89 91.372 324.538 91.372H332.242C332.386 91.636 332.53 91.984 332.674 92.416C332.842 92.848 332.926 93.304 332.926 93.784C332.926 94.672 332.722 95.32 332.314 95.728C331.906 96.112 331.378 96.304 330.73 96.304H323.026ZM351.664 81.184C351.832 81.448 351.976 81.808 352.096 82.264C352.24 82.696 352.312 83.152 352.312 83.632C352.312 84.568 352.108 85.24 351.7 85.648C351.316 86.032 350.788 86.224 350.116 86.224H342.556V90.292H350.44C350.632 90.556 350.788 90.904 350.908 91.336C351.052 91.768 351.124 92.224 351.124 92.704C351.124 93.616 350.92 94.276 350.512 94.684C350.128 95.068 349.6 95.26 348.928 95.26H342.628V102.856C342.364 102.928 341.944 103 341.368 103.072C340.816 103.144 340.264 103.18 339.712 103.18C339.16 103.18 338.668 103.132 338.236 103.036C337.828 102.964 337.48 102.82 337.192 102.604C336.904 102.388 336.688 102.088 336.544 101.704C336.4 101.32 336.328 100.816 336.328 100.192V84.532C336.328 83.5 336.628 82.684 337.228 82.084C337.828 81.484 338.644 81.184 339.676 81.184H351.664ZM358.801 103.108C357.769 103.108 356.953 102.808 356.353 102.208C355.753 101.608 355.453 100.792 355.453 99.76V81.148C355.717 81.1 356.137 81.04 356.713 80.968C357.289 80.872 357.841 80.824 358.369 80.824C358.921 80.824 359.401 80.872 359.809 80.968C360.241 81.04 360.601 81.184 360.889 81.4C361.177 81.616 361.393 81.916 361.537 82.3C361.681 82.684 361.753 83.188 361.753 83.812V98.032H369.997C370.165 98.296 370.321 98.656 370.465 99.112C370.609 99.544 370.681 100 370.681 100.48C370.681 101.44 370.477 102.124 370.069 102.532C369.661 102.916 369.121 103.108 368.449 103.108H358.801ZM373.91 84.532C373.91 83.5 374.21 82.684 374.81 82.084C375.41 81.484 376.226 81.184 377.258 81.184H389.138C389.306 81.448 389.45 81.796 389.57 82.228C389.714 82.66 389.786 83.116 389.786 83.596C389.786 84.508 389.582 85.156 389.174 85.54C388.79 85.924 388.274 86.116 387.626 86.116H380.03V89.464H388.13C388.298 89.728 388.442 90.076 388.562 90.508C388.706 90.916 388.778 91.36 388.778 91.84C388.778 92.752 388.586 93.4 388.202 93.784C387.818 94.168 387.302 94.36 386.654 94.36H380.03V98.14H389.282C389.45 98.404 389.594 98.752 389.714 99.184C389.858 99.616 389.93 100.072 389.93 100.552C389.93 101.464 389.726 102.124 389.318 102.532C388.934 102.916 388.418 103.108 387.77 103.108H377.258C376.226 103.108 375.41 102.808 374.81 102.208C374.21 101.608 373.91 100.792 373.91 99.76V84.532ZM392.473 83.848C392.593 83.512 392.761 83.176 392.977 82.84C393.193 82.504 393.457 82.204 393.769 81.94C394.105 81.652 394.489 81.424 394.921 81.256C395.353 81.064 395.833 80.968 396.361 80.968C397.057 80.968 397.669 81.148 398.197 81.508C398.725 81.844 399.265 82.432 399.817 83.272L402.625 87.556L406.765 81.436C406.957 81.34 407.221 81.256 407.557 81.184C407.917 81.088 408.265 81.04 408.601 81.04C409.705 81.04 410.569 81.304 411.193 81.832C411.817 82.36 412.129 83.008 412.129 83.776C412.129 84.448 411.949 85.048 411.589 85.576C411.253 86.104 410.785 86.74 410.185 87.484L406.477 92.02L412.345 100.408C412.153 101.296 411.733 102.004 411.085 102.532C410.461 103.036 409.609 103.288 408.529 103.288C407.833 103.288 407.233 103.12 406.729 102.784C406.225 102.424 405.709 101.824 405.181 100.984L402.265 96.376L397.729 103.216C397.537 103.24 397.357 103.252 397.189 103.252C397.021 103.276 396.853 103.288 396.685 103.288C395.317 103.288 394.309 103.012 393.661 102.46C393.013 101.908 392.689 101.224 392.689 100.408C392.689 99.712 392.833 99.112 393.121 98.608C393.433 98.08 393.865 97.468 394.417 96.772L398.197 91.912L392.473 83.848ZM414.854 96.304C414.686 96.04 414.53 95.692 414.386 95.26C414.242 94.828 414.17 94.372 414.17 93.892C414.17 93.004 414.374 92.368 414.782 91.984C415.19 91.576 415.718 91.372 416.366 91.372H424.07C424.214 91.636 424.358 91.984 424.502 92.416C424.67 92.848 424.754 93.304 424.754 93.784C424.754 94.672 424.55 95.32 424.142 95.728C423.734 96.112 423.206 96.304 422.558 96.304H414.854ZM434.276 98.5C434.612 98.596 435.044 98.668 435.572 98.716C436.1 98.74 436.604 98.752 437.084 98.752C438.044 98.752 438.836 98.56 439.46 98.176C440.108 97.768 440.432 97.144 440.432 96.304C440.432 95.512 440.168 94.948 439.64 94.612C439.112 94.276 438.308 94.108 437.228 94.108H434.276V98.5ZM434.276 89.716H436.904C437.936 89.716 438.68 89.524 439.136 89.14C439.616 88.756 439.856 88.192 439.856 87.448C439.856 86.8 439.58 86.284 439.028 85.9C438.5 85.516 437.696 85.324 436.616 85.324C436.256 85.324 435.836 85.336 435.356 85.36C434.9 85.384 434.54 85.42 434.276 85.468V89.716ZM436.616 103.576C436.208 103.576 435.728 103.564 435.176 103.54C434.624 103.516 434.048 103.468 433.448 103.396C432.872 103.324 432.296 103.228 431.72 103.108C431.144 103.012 430.616 102.868 430.136 102.676C428.816 102.172 428.156 101.296 428.156 100.048V83.236C428.156 82.732 428.288 82.348 428.552 82.084C428.84 81.796 429.224 81.568 429.704 81.4C430.52 81.112 431.54 80.908 432.764 80.788C433.988 80.644 435.248 80.572 436.544 80.572C439.616 80.572 441.98 81.088 443.636 82.12C445.292 83.152 446.12 84.748 446.12 86.908C446.12 87.988 445.808 88.924 445.184 89.716C444.56 90.484 443.72 91.048 442.664 91.408C443.864 91.744 444.86 92.356 445.652 93.244C446.468 94.132 446.876 95.248 446.876 96.592C446.876 98.968 445.988 100.732 444.212 101.884C442.46 103.012 439.928 103.576 436.616 103.576ZM449.365 92.056C449.365 90.184 449.653 88.528 450.229 87.088C450.829 85.648 451.633 84.448 452.641 83.488C453.673 82.504 454.873 81.76 456.241 81.256C457.633 80.752 459.133 80.5 460.741 80.5C462.349 80.5 463.837 80.752 465.205 81.256C466.597 81.76 467.809 82.504 468.841 83.488C469.873 84.448 470.677 85.648 471.253 87.088C471.853 88.528 472.153 90.184 472.153 92.056C472.153 93.928 471.865 95.596 471.289 97.06C470.713 98.5 469.909 99.712 468.877 100.696C467.869 101.656 466.669 102.388 465.277 102.892C463.885 103.396 462.373 103.648 460.741 103.648C459.109 103.648 457.597 103.396 456.205 102.892C454.813 102.364 453.613 101.608 452.605 100.624C451.597 99.64 450.805 98.428 450.229 96.988C449.653 95.548 449.365 93.904 449.365 92.056ZM455.845 92.056C455.845 94.24 456.289 95.872 457.177 96.952C458.065 98.032 459.253 98.572 460.741 98.572C462.253 98.572 463.453 98.032 464.341 96.952C465.229 95.872 465.673 94.24 465.673 92.056C465.673 89.896 465.229 88.276 464.341 87.196C463.477 86.116 462.289 85.576 460.777 85.576C459.289 85.576 458.089 86.116 457.177 87.196C456.289 88.252 455.845 89.872 455.845 92.056ZM473.965 83.848C474.085 83.512 474.253 83.176 474.469 82.84C474.685 82.504 474.949 82.204 475.261 81.94C475.597 81.652 475.981 81.424 476.413 81.256C476.845 81.064 477.325 80.968 477.853 80.968C478.549 80.968 479.161 81.148 479.689 81.508C480.217 81.844 480.757 82.432 481.309 83.272L484.117 87.556L488.257 81.436C488.449 81.34 488.713 81.256 489.049 81.184C489.409 81.088 489.757 81.04 490.093 81.04C491.197 81.04 492.061 81.304 492.685 81.832C493.309 82.36 493.621 83.008 493.621 83.776C493.621 84.448 493.441 85.048 493.081 85.576C492.745 86.104 492.277 86.74 491.677 87.484L487.969 92.02L493.837 100.408C493.645 101.296 493.225 102.004 492.577 102.532C491.953 103.036 491.101 103.288 490.021 103.288C489.325 103.288 488.725 103.12 488.221 102.784C487.717 102.424 487.201 101.824 486.673 100.984L483.757 96.376L479.221 103.216C479.029 103.24 478.849 103.252 478.681 103.252C478.513 103.276 478.345 103.288 478.177 103.288C476.809 103.288 475.801 103.012 475.153 102.46C474.505 101.908 474.181 101.224 474.181 100.408C474.181 99.712 474.325 99.112 474.613 98.608C474.925 98.08 475.357 97.468 475.909 96.772L479.689 91.912L473.965 83.848Z" fill="#0C0B0B"/>
<path d="M21.5469 124.172V134.25H20.0938V122.547H21.4219L21.5469 124.172ZM27.2422 126.703V126.867C27.2422 127.482 27.1693 128.052 27.0234 128.578C26.8776 129.099 26.6641 129.552 26.3828 129.938C26.1068 130.323 25.7656 130.622 25.3594 130.836C24.9531 131.049 24.487 131.156 23.9609 131.156C23.4245 131.156 22.9505 131.068 22.5391 130.891C22.1276 130.714 21.7786 130.456 21.4922 130.117C21.2057 129.779 20.9766 129.372 20.8047 128.898C20.638 128.424 20.5234 127.891 20.4609 127.297V126.422C20.5234 125.797 20.6406 125.237 20.8125 124.742C20.9844 124.247 21.2109 123.826 21.4922 123.477C21.7786 123.122 22.125 122.854 22.5312 122.672C22.9375 122.484 23.4062 122.391 23.9375 122.391C24.4688 122.391 24.9401 122.495 25.3516 122.703C25.763 122.906 26.1094 123.198 26.3906 123.578C26.6719 123.958 26.8828 124.414 27.0234 124.945C27.1693 125.471 27.2422 126.057 27.2422 126.703ZM25.7891 126.867V126.703C25.7891 126.281 25.7448 125.885 25.6562 125.516C25.5677 125.141 25.4297 124.812 25.2422 124.531C25.0599 124.245 24.8255 124.021 24.5391 123.859C24.2526 123.693 23.9115 123.609 23.5156 123.609C23.151 123.609 22.8333 123.672 22.5625 123.797C22.2969 123.922 22.0703 124.091 21.8828 124.305C21.6953 124.513 21.5417 124.753 21.4219 125.023C21.3073 125.289 21.2214 125.565 21.1641 125.852V127.875C21.2682 128.24 21.4141 128.583 21.6016 128.906C21.7891 129.224 22.0391 129.482 22.3516 129.68C22.6641 129.872 23.0573 129.969 23.5312 129.969C23.9219 129.969 24.2578 129.888 24.5391 129.727C24.8255 129.56 25.0599 129.333 25.2422 129.047C25.4297 128.76 25.5677 128.432 25.6562 128.062C25.7448 127.688 25.7891 127.289 25.7891 126.867ZM32.5938 131.156C32.0052 131.156 31.4714 131.057 30.9922 130.859C30.5182 130.656 30.1094 130.372 29.7656 130.008C29.4271 129.643 29.1667 129.211 28.9844 128.711C28.8021 128.211 28.7109 127.664 28.7109 127.07V126.742C28.7109 126.055 28.8125 125.443 29.0156 124.906C29.2188 124.365 29.4948 123.906 29.8438 123.531C30.1927 123.156 30.5885 122.872 31.0312 122.68C31.474 122.487 31.9323 122.391 32.4062 122.391C33.0104 122.391 33.5312 122.495 33.9688 122.703C34.4115 122.911 34.7734 123.203 35.0547 123.578C35.3359 123.948 35.5443 124.385 35.6797 124.891C35.8151 125.391 35.8828 125.938 35.8828 126.531V127.18H29.5703V126H34.4375V125.891C34.4167 125.516 34.3385 125.151 34.2031 124.797C34.0729 124.443 33.8646 124.151 33.5781 123.922C33.2917 123.693 32.901 123.578 32.4062 123.578C32.0781 123.578 31.776 123.648 31.5 123.789C31.224 123.924 30.987 124.128 30.7891 124.398C30.5911 124.669 30.4375 125 30.3281 125.391C30.2188 125.781 30.1641 126.232 30.1641 126.742V127.07C30.1641 127.471 30.2188 127.849 30.3281 128.203C30.4427 128.552 30.6068 128.859 30.8203 129.125C31.0391 129.391 31.3021 129.599 31.6094 129.75C31.9219 129.901 32.276 129.977 32.6719 129.977C33.1823 129.977 33.6146 129.872 33.9688 129.664C34.3229 129.456 34.6328 129.177 34.8984 128.828L35.7734 129.523C35.5911 129.799 35.3594 130.062 35.0781 130.312C34.7969 130.562 34.4505 130.766 34.0391 130.922C33.6328 131.078 33.151 131.156 32.5938 131.156ZM39.0156 123.875V131H37.5703V122.547H38.9766L39.0156 123.875ZM41.6562 122.5L41.6484 123.844C41.5286 123.818 41.4141 123.802 41.3047 123.797C41.2005 123.786 41.0807 123.781 40.9453 123.781C40.612 123.781 40.3177 123.833 40.0625 123.938C39.8073 124.042 39.5911 124.188 39.4141 124.375C39.237 124.562 39.0964 124.786 38.9922 125.047C38.8932 125.302 38.8281 125.583 38.7969 125.891L38.3906 126.125C38.3906 125.615 38.4401 125.135 38.5391 124.688C38.6432 124.24 38.8021 123.844 39.0156 123.5C39.2292 123.151 39.5 122.88 39.8281 122.688C40.1615 122.49 40.5573 122.391 41.0156 122.391C41.1198 122.391 41.2396 122.404 41.375 122.43C41.5104 122.451 41.6042 122.474 41.6562 122.5ZM47.9141 128.758C47.9141 128.549 47.8672 128.357 47.7734 128.18C47.6849 127.997 47.5 127.833 47.2188 127.688C46.9427 127.536 46.526 127.406 45.9688 127.297C45.5 127.198 45.0755 127.081 44.6953 126.945C44.3203 126.81 44 126.646 43.7344 126.453C43.474 126.26 43.2734 126.034 43.1328 125.773C42.9922 125.513 42.9219 125.208 42.9219 124.859C42.9219 124.526 42.9948 124.211 43.1406 123.914C43.2917 123.617 43.5026 123.354 43.7734 123.125C44.0495 122.896 44.3802 122.716 44.7656 122.586C45.151 122.456 45.5807 122.391 46.0547 122.391C46.7318 122.391 47.3099 122.51 47.7891 122.75C48.2682 122.99 48.6354 123.31 48.8906 123.711C49.1458 124.107 49.2734 124.547 49.2734 125.031H47.8281C47.8281 124.797 47.7578 124.57 47.6172 124.352C47.4818 124.128 47.2812 123.943 47.0156 123.797C46.7552 123.651 46.4349 123.578 46.0547 123.578C45.6536 123.578 45.3281 123.641 45.0781 123.766C44.8333 123.885 44.6536 124.039 44.5391 124.227C44.4297 124.414 44.375 124.612 44.375 124.82C44.375 124.977 44.401 125.117 44.4531 125.242C44.5104 125.362 44.6094 125.474 44.75 125.578C44.8906 125.677 45.0885 125.771 45.3438 125.859C45.599 125.948 45.9245 126.036 46.3203 126.125C47.013 126.281 47.5833 126.469 48.0312 126.688C48.4792 126.906 48.8125 127.174 49.0312 127.492C49.25 127.81 49.3594 128.195 49.3594 128.648C49.3594 129.018 49.2812 129.357 49.125 129.664C48.974 129.971 48.7526 130.237 48.4609 130.461C48.1745 130.68 47.8307 130.852 47.4297 130.977C47.0339 131.096 46.5885 131.156 46.0938 131.156C45.349 131.156 44.7188 131.023 44.2031 130.758C43.6875 130.492 43.2969 130.148 43.0312 129.727C42.7656 129.305 42.6328 128.859 42.6328 128.391H44.0859C44.1068 128.786 44.2214 129.102 44.4297 129.336C44.638 129.565 44.8932 129.729 45.1953 129.828C45.4974 129.922 45.7969 129.969 46.0938 129.969C46.4896 129.969 46.8203 129.917 47.0859 129.812C47.3568 129.708 47.5625 129.565 47.7031 129.383C47.8438 129.201 47.9141 128.992 47.9141 128.758ZM50.875 126.867V126.688C50.875 126.078 50.9635 125.513 51.1406 124.992C51.3177 124.466 51.5729 124.01 51.9062 123.625C52.2396 123.234 52.6432 122.932 53.1172 122.719C53.5911 122.5 54.1224 122.391 54.7109 122.391C55.3047 122.391 55.8385 122.5 56.3125 122.719C56.7917 122.932 57.1979 123.234 57.5312 123.625C57.8698 124.01 58.1276 124.466 58.3047 124.992C58.4818 125.513 58.5703 126.078 58.5703 126.688V126.867C58.5703 127.477 58.4818 128.042 58.3047 128.562C58.1276 129.083 57.8698 129.539 57.5312 129.93C57.1979 130.315 56.7943 130.617 56.3203 130.836C55.8516 131.049 55.3203 131.156 54.7266 131.156C54.1328 131.156 53.599 131.049 53.125 130.836C52.651 130.617 52.2448 130.315 51.9062 129.93C51.5729 129.539 51.3177 129.083 51.1406 128.562C50.9635 128.042 50.875 127.477 50.875 126.867ZM52.3203 126.688V126.867C52.3203 127.289 52.3698 127.688 52.4688 128.062C52.5677 128.432 52.7161 128.76 52.9141 129.047C53.1172 129.333 53.3698 129.56 53.6719 129.727C53.974 129.888 54.3255 129.969 54.7266 129.969C55.1224 129.969 55.4688 129.888 55.7656 129.727C56.0677 129.56 56.3177 129.333 56.5156 129.047C56.7135 128.76 56.862 128.432 56.9609 128.062C57.0651 127.688 57.1172 127.289 57.1172 126.867V126.688C57.1172 126.271 57.0651 125.878 56.9609 125.508C56.862 125.133 56.7109 124.802 56.5078 124.516C56.3099 124.224 56.0599 123.995 55.7578 123.828C55.4609 123.661 55.112 123.578 54.7109 123.578C54.3151 123.578 53.9661 123.661 53.6641 123.828C53.3672 123.995 53.1172 124.224 52.9141 124.516C52.7161 124.802 52.5677 125.133 52.4688 125.508C52.3698 125.878 52.3203 126.271 52.3203 126.688ZM61.8281 124.352V131H60.3828V122.547H61.75L61.8281 124.352ZM61.4844 126.453L60.8828 126.43C60.888 125.852 60.974 125.318 61.1406 124.828C61.3073 124.333 61.5417 123.904 61.8438 123.539C62.1458 123.174 62.5052 122.893 62.9219 122.695C63.3438 122.492 63.8099 122.391 64.3203 122.391C64.737 122.391 65.112 122.448 65.4453 122.562C65.7786 122.672 66.0625 122.849 66.2969 123.094C66.5365 123.339 66.7188 123.656 66.8438 124.047C66.9688 124.432 67.0312 124.904 67.0312 125.461V131H65.5781V125.445C65.5781 125.003 65.513 124.648 65.3828 124.383C65.2526 124.112 65.0625 123.917 64.8125 123.797C64.5625 123.672 64.2552 123.609 63.8906 123.609C63.5312 123.609 63.2031 123.685 62.9062 123.836C62.6146 123.987 62.362 124.195 62.1484 124.461C61.9401 124.727 61.776 125.031 61.6562 125.375C61.5417 125.714 61.4844 126.073 61.4844 126.453ZM74.2109 129.555V125.203C74.2109 124.87 74.1432 124.581 74.0078 124.336C73.8776 124.086 73.6797 123.893 73.4141 123.758C73.1484 123.622 72.8203 123.555 72.4297 123.555C72.0651 123.555 71.7448 123.617 71.4688 123.742C71.1979 123.867 70.9844 124.031 70.8281 124.234C70.6771 124.438 70.6016 124.656 70.6016 124.891H69.1562C69.1562 124.589 69.2344 124.289 69.3906 123.992C69.5469 123.695 69.7708 123.427 70.0625 123.188C70.3594 122.943 70.7135 122.75 71.125 122.609C71.5417 122.464 72.0052 122.391 72.5156 122.391C73.1302 122.391 73.6719 122.495 74.1406 122.703C74.6146 122.911 74.9844 123.227 75.25 123.648C75.5208 124.065 75.6562 124.589 75.6562 125.219V129.156C75.6562 129.438 75.6797 129.737 75.7266 130.055C75.7786 130.372 75.8542 130.646 75.9531 130.875V131H74.4453C74.3724 130.833 74.3151 130.612 74.2734 130.336C74.2318 130.055 74.2109 129.794 74.2109 129.555ZM74.4609 125.875L74.4766 126.891H73.0156C72.6042 126.891 72.237 126.924 71.9141 126.992C71.5911 127.055 71.3203 127.151 71.1016 127.281C70.8828 127.411 70.7161 127.576 70.6016 127.773C70.487 127.966 70.4297 128.193 70.4297 128.453C70.4297 128.719 70.4896 128.961 70.6094 129.18C70.7292 129.398 70.9089 129.573 71.1484 129.703C71.3932 129.828 71.6927 129.891 72.0469 129.891C72.4896 129.891 72.8802 129.797 73.2188 129.609C73.5573 129.422 73.8255 129.193 74.0234 128.922C74.2266 128.651 74.3359 128.388 74.3516 128.133L74.9688 128.828C74.9323 129.047 74.8333 129.289 74.6719 129.555C74.5104 129.82 74.2943 130.076 74.0234 130.32C73.7578 130.56 73.4401 130.76 73.0703 130.922C72.7057 131.078 72.2943 131.156 71.8359 131.156C71.263 131.156 70.7604 131.044 70.3281 130.82C69.901 130.596 69.5677 130.297 69.3281 129.922C69.0938 129.542 68.9766 129.117 68.9766 128.648C68.9766 128.195 69.0651 127.797 69.2422 127.453C69.4193 127.104 69.6745 126.815 70.0078 126.586C70.3411 126.352 70.7422 126.174 71.2109 126.055C71.6797 125.935 72.2031 125.875 72.7812 125.875H74.4609ZM79.5 119V131H78.0469V119H79.5ZM84.8281 125.57V126.758H81.0156V125.57H84.8281ZM87.6875 124.172V134.25H86.2344V122.547H87.5625L87.6875 124.172ZM93.3828 126.703V126.867C93.3828 127.482 93.3099 128.052 93.1641 128.578C93.0182 129.099 92.8047 129.552 92.5234 129.938C92.2474 130.323 91.9062 130.622 91.5 130.836C91.0938 131.049 90.6276 131.156 90.1016 131.156C89.5651 131.156 89.0911 131.068 88.6797 130.891C88.2682 130.714 87.9193 130.456 87.6328 130.117C87.3464 129.779 87.1172 129.372 86.9453 128.898C86.7786 128.424 86.6641 127.891 86.6016 127.297V126.422C86.6641 125.797 86.7812 125.237 86.9531 124.742C87.125 124.247 87.3516 123.826 87.6328 123.477C87.9193 123.122 88.2656 122.854 88.6719 122.672C89.0781 122.484 89.5469 122.391 90.0781 122.391C90.6094 122.391 91.0807 122.495 91.4922 122.703C91.9036 122.906 92.25 123.198 92.5312 123.578C92.8125 123.958 93.0234 124.414 93.1641 124.945C93.3099 125.471 93.3828 126.057 93.3828 126.703ZM91.9297 126.867V126.703C91.9297 126.281 91.8854 125.885 91.7969 125.516C91.7083 125.141 91.5703 124.812 91.3828 124.531C91.2005 124.245 90.9661 124.021 90.6797 123.859C90.3932 123.693 90.0521 123.609 89.6562 123.609C89.2917 123.609 88.974 123.672 88.7031 123.797C88.4375 123.922 88.2109 124.091 88.0234 124.305C87.8359 124.513 87.6823 124.753 87.5625 125.023C87.4479 125.289 87.362 125.565 87.3047 125.852V127.875C87.4089 128.24 87.5547 128.583 87.7422 128.906C87.9297 129.224 88.1797 129.482 88.4922 129.68C88.8047 129.872 89.1979 129.969 89.6719 129.969C90.0625 129.969 90.3984 129.888 90.6797 129.727C90.9661 129.56 91.2005 129.333 91.3828 129.047C91.5703 128.76 91.7083 128.432 91.7969 128.062C91.8854 127.688 91.9297 127.289 91.9297 126.867ZM96.6719 123.875V131H95.2266V122.547H96.6328L96.6719 123.875ZM99.3125 122.5L99.3047 123.844C99.1849 123.818 99.0703 123.802 98.9609 123.797C98.8568 123.786 98.737 123.781 98.6016 123.781C98.2682 123.781 97.974 123.833 97.7188 123.938C97.4635 124.042 97.2474 124.188 97.0703 124.375C96.8932 124.562 96.7526 124.786 96.6484 125.047C96.5495 125.302 96.4844 125.583 96.4531 125.891L96.0469 126.125C96.0469 125.615 96.0964 125.135 96.1953 124.688C96.2995 124.24 96.4583 123.844 96.6719 123.5C96.8854 123.151 97.1562 122.88 97.4844 122.688C97.8177 122.49 98.2135 122.391 98.6719 122.391C98.776 122.391 98.8958 122.404 99.0312 122.43C99.1667 122.451 99.2604 122.474 99.3125 122.5ZM100.109 126.867V126.688C100.109 126.078 100.198 125.513 100.375 124.992C100.552 124.466 100.807 124.01 101.141 123.625C101.474 123.234 101.878 122.932 102.352 122.719C102.826 122.5 103.357 122.391 103.945 122.391C104.539 122.391 105.073 122.5 105.547 122.719C106.026 122.932 106.432 123.234 106.766 123.625C107.104 124.01 107.362 124.466 107.539 124.992C107.716 125.513 107.805 126.078 107.805 126.688V126.867C107.805 127.477 107.716 128.042 107.539 128.562C107.362 129.083 107.104 129.539 106.766 129.93C106.432 130.315 106.029 130.617 105.555 130.836C105.086 131.049 104.555 131.156 103.961 131.156C103.367 131.156 102.833 131.049 102.359 130.836C101.885 130.617 101.479 130.315 101.141 129.93C100.807 129.539 100.552 129.083 100.375 128.562C100.198 128.042 100.109 127.477 100.109 126.867ZM101.555 126.688V126.867C101.555 127.289 101.604 127.688 101.703 128.062C101.802 128.432 101.951 128.76 102.148 129.047C102.352 129.333 102.604 129.56 102.906 129.727C103.208 129.888 103.56 129.969 103.961 129.969C104.357 129.969 104.703 129.888 105 129.727C105.302 129.56 105.552 129.333 105.75 129.047C105.948 128.76 106.096 128.432 106.195 128.062C106.299 127.688 106.352 127.289 106.352 126.867V126.688C106.352 126.271 106.299 125.878 106.195 125.508C106.096 125.133 105.945 124.802 105.742 124.516C105.544 124.224 105.294 123.995 104.992 123.828C104.695 123.661 104.346 123.578 103.945 123.578C103.549 123.578 103.201 123.661 102.898 123.828C102.602 123.995 102.352 124.224 102.148 124.516C101.951 124.802 101.802 125.133 101.703 125.508C101.604 125.878 101.555 126.271 101.555 126.688ZM109.656 122.547H111.109V132.008C111.109 132.523 111.026 132.961 110.859 133.32C110.698 133.68 110.453 133.951 110.125 134.133C109.802 134.32 109.393 134.414 108.898 134.414C108.768 134.414 108.617 134.401 108.445 134.375C108.268 134.349 108.12 134.318 108 134.281L108.008 133.117C108.107 133.138 108.219 133.154 108.344 133.164C108.469 133.18 108.578 133.188 108.672 133.188C108.885 133.188 109.065 133.148 109.211 133.07C109.357 132.992 109.466 132.867 109.539 132.695C109.617 132.523 109.656 132.294 109.656 132.008V122.547ZM109.508 120.305C109.508 120.07 109.581 119.872 109.727 119.711C109.872 119.549 110.083 119.469 110.359 119.469C110.641 119.469 110.854 119.549 111 119.711C111.146 119.872 111.219 120.07 111.219 120.305C111.219 120.529 111.146 120.721 111 120.883C110.854 121.039 110.641 121.117 110.359 121.117C110.083 121.117 109.872 121.039 109.727 120.883C109.581 120.721 109.508 120.529 109.508 120.305ZM116.953 131.156C116.365 131.156 115.831 131.057 115.352 130.859C114.878 130.656 114.469 130.372 114.125 130.008C113.786 129.643 113.526 129.211 113.344 128.711C113.161 128.211 113.07 127.664 113.07 127.07V126.742C113.07 126.055 113.172 125.443 113.375 124.906C113.578 124.365 113.854 123.906 114.203 123.531C114.552 123.156 114.948 122.872 115.391 122.68C115.833 122.487 116.292 122.391 116.766 122.391C117.37 122.391 117.891 122.495 118.328 122.703C118.771 122.911 119.133 123.203 119.414 123.578C119.695 123.948 119.904 124.385 120.039 124.891C120.174 125.391 120.242 125.938 120.242 126.531V127.18H113.93V126H118.797V125.891C118.776 125.516 118.698 125.151 118.562 124.797C118.432 124.443 118.224 124.151 117.938 123.922C117.651 123.693 117.26 123.578 116.766 123.578C116.438 123.578 116.135 123.648 115.859 123.789C115.583 123.924 115.346 124.128 115.148 124.398C114.951 124.669 114.797 125 114.688 125.391C114.578 125.781 114.523 126.232 114.523 126.742V127.07C114.523 127.471 114.578 127.849 114.688 128.203C114.802 128.552 114.966 128.859 115.18 129.125C115.398 129.391 115.661 129.599 115.969 129.75C116.281 129.901 116.635 129.977 117.031 129.977C117.542 129.977 117.974 129.872 118.328 129.664C118.682 129.456 118.992 129.177 119.258 128.828L120.133 129.523C119.951 129.799 119.719 130.062 119.438 130.312C119.156 130.562 118.81 130.766 118.398 130.922C117.992 131.078 117.51 131.156 116.953 131.156ZM125.312 129.969C125.656 129.969 125.974 129.898 126.266 129.758C126.557 129.617 126.797 129.424 126.984 129.18C127.172 128.93 127.279 128.646 127.305 128.328H128.68C128.654 128.828 128.484 129.294 128.172 129.727C127.865 130.154 127.461 130.5 126.961 130.766C126.461 131.026 125.911 131.156 125.312 131.156C124.677 131.156 124.122 131.044 123.648 130.82C123.18 130.596 122.789 130.289 122.477 129.898C122.169 129.508 121.938 129.06 121.781 128.555C121.63 128.044 121.555 127.505 121.555 126.938V126.609C121.555 126.042 121.63 125.505 121.781 125C121.938 124.49 122.169 124.039 122.477 123.648C122.789 123.258 123.18 122.951 123.648 122.727C124.122 122.503 124.677 122.391 125.312 122.391C125.974 122.391 126.552 122.526 127.047 122.797C127.542 123.062 127.93 123.427 128.211 123.891C128.497 124.349 128.654 124.87 128.68 125.453H127.305C127.279 125.104 127.18 124.789 127.008 124.508C126.841 124.227 126.612 124.003 126.32 123.836C126.034 123.664 125.698 123.578 125.312 123.578C124.87 123.578 124.497 123.667 124.195 123.844C123.898 124.016 123.661 124.25 123.484 124.547C123.312 124.839 123.188 125.164 123.109 125.523C123.036 125.878 123 126.24 123 126.609V126.938C123 127.307 123.036 127.672 123.109 128.031C123.182 128.391 123.305 128.716 123.477 129.008C123.654 129.299 123.891 129.534 124.188 129.711C124.49 129.883 124.865 129.969 125.312 129.969ZM133.844 122.547V123.656H129.273V122.547H133.844ZM130.82 120.492H132.266V128.906C132.266 129.193 132.31 129.409 132.398 129.555C132.487 129.701 132.602 129.797 132.742 129.844C132.883 129.891 133.034 129.914 133.195 129.914C133.315 129.914 133.44 129.904 133.57 129.883C133.706 129.857 133.807 129.836 133.875 129.82L133.883 131C133.768 131.036 133.617 131.07 133.43 131.102C133.247 131.138 133.026 131.156 132.766 131.156C132.411 131.156 132.086 131.086 131.789 130.945C131.492 130.805 131.255 130.57 131.078 130.242C130.906 129.909 130.82 129.461 130.82 128.898V120.492Z" fill="#0C0B0B"/>
<g clip-path="url(#clip0_1_333)">
<path d="M645.34 20.8057C652.012 37.7464 673.849 35.1971 688.667 31.5787C692.22 30.6741 695.859 29.6873 699.066 27.9603C702.272 26.2333 704.958 23.4373 705.998 20.0656C707.125 16.2828 705.825 12.0887 703.572 8.79926C701.492 5.75652 698.459 2.54931 695.253 0.575643C693.866 3.94733 688.927 4.19404 685.547 4.19404C680.781 4.19404 676.449 2.46708 672.029 1.23353C667.523 -1.00594e-05 662.671 -0.246719 658.164 0.904588C649.066 2.96049 641.787 11.7598 645.34 20.8057Z" fill="#0C0B0B"/>
<path d="M658.944 134.209C658.684 134.209 658.598 134.209 658.424 134.292L658.944 134.209Z" fill="#0C0B0B"/>
<path d="M658.944 134.209C658.684 134.209 658.598 134.209 658.424 134.292L658.944 134.209Z" fill="#0C0B0B"/>
<path d="M639.707 51.7266V35.855C639.707 22.3683 652.965 11.3486 669.17 11.3486C677.229 11.3486 684.594 14.0624 689.967 18.5032C695.34 22.9439 698.632 29.0294 698.632 35.7727V51.6443" stroke="#0C0B0B" stroke-width="2" stroke-miterlimit="10"/>
<path d="M698.632 68.9139V87.2526C698.632 100.739 685.374 111.759 669.17 111.759C652.965 111.759 639.707 100.739 639.707 87.2526V68.9139" stroke="#0C0B0B" stroke-width="2" stroke-miterlimit="10"/>
<path d="M651.665 74.5882C659.945 74.5882 666.657 68.2186 666.657 60.3614C666.657 52.5041 659.945 46.1345 651.665 46.1345C643.386 46.1345 636.674 52.5041 636.674 60.3614C636.674 68.2186 643.386 74.5882 651.665 74.5882Z" stroke="#0C0B0B" stroke-width="2" stroke-miterlimit="10"/>
<path d="M686.587 74.5882C694.867 74.5882 701.579 68.2186 701.579 60.3614C701.579 52.5041 694.867 46.1345 686.587 46.1345C678.308 46.1345 671.596 52.5041 671.596 60.3614C671.596 68.2186 678.308 74.5882 686.587 74.5882Z" stroke="#0C0B0B" stroke-width="2" stroke-miterlimit="10"/>
<path d="M666.57 59.9502H671.769" stroke="#0C0B0B" stroke-width="4" stroke-miterlimit="10"/>
<path d="M681.215 109.539H681.302V135.279" stroke="#0C0B0B" stroke-width="2" stroke-miterlimit="10"/>
<path d="M659.638 134.95V110.197" stroke="#0C0B0B" stroke-width="2" stroke-miterlimit="10"/>
<path d="M651.665 63.6508C653.58 63.6508 655.132 62.1781 655.132 60.3614C655.132 58.5447 653.58 57.0719 651.665 57.0719C649.751 57.0719 648.199 58.5447 648.199 60.3614C648.199 62.1781 649.751 63.6508 651.665 63.6508Z" fill="#0C0B0B"/>
<path d="M686.587 63.6508C688.502 63.6508 690.054 62.1781 690.054 60.3614C690.054 58.5447 688.502 57.0719 686.587 57.0719C684.673 57.0719 683.121 58.5447 683.121 60.3614C683.121 62.1781 684.673 63.6508 686.587 63.6508Z" fill="#0C0B0B"/>
<path d="M637.714 65.7067H635.981C634.074 65.7067 632.341 66.4468 631.041 67.5982C629.828 68.8317 629.048 70.4764 629.048 72.2856C629.048 75.904 632.168 78.8645 635.981 78.8645H639.447" stroke="#0C0B0B" stroke-width="2" stroke-miterlimit="10"/>
<path d="M700.539 65.7067H702.272C706.085 65.7067 709.204 68.6672 709.204 72.2856C709.204 74.0948 708.424 75.7395 707.125 76.9731C705.911 78.1244 704.178 78.8645 702.272 78.8645H698.806" stroke="#0C0B0B" stroke-width="2" stroke-miterlimit="10"/>
<path d="M639.534 70.312V74.2593H636.761C635.634 74.2593 634.681 73.3547 634.681 72.2856C634.681 71.71 634.941 71.2165 635.288 70.8876C635.634 70.5587 636.154 70.312 636.761 70.312H639.534V70.312Z" fill="#0C0B0B"/>
<path d="M698.806 74.2593V70.312H701.579C702.705 70.312 703.658 71.2166 703.658 72.2856C703.658 72.8613 703.398 73.3547 703.052 73.6836C702.705 74.0126 702.185 74.2593 701.579 74.2593H698.806V74.2593Z" fill="#0C0B0B"/>
<path d="M669.17 73.9304C669.17 73.9304 664.837 80.5093 671.769 78.8645" stroke="#0C0B0B" stroke-width="2" stroke-miterlimit="10" stroke-linecap="round"/>
<path d="M661.371 92.9269C661.371 92.9269 668.303 101.068 677.835 92.9269" stroke="#0C0B0B" stroke-width="2" stroke-miterlimit="10" stroke-linecap="round"/>
<path d="M644.906 43.5029C644.906 43.5029 649.672 38.98 657.905 42.6806" stroke="#0C0B0B" stroke-width="3" stroke-miterlimit="10" stroke-linecap="round"/>
<path d="M693.433 43.5029C693.433 43.5029 688.667 38.98 680.435 42.6806" stroke="#0C0B0B" stroke-width="3" stroke-miterlimit="10" stroke-linecap="round"/>
<path d="M639.534 34.128C639.534 34.128 627.575 25.3287 632.775 14.638C637.974 3.94733 654.438 9.70387 654.438 9.70387C654.438 9.70387 661.024 36.3484 639.534 34.128Z" fill="#0C0B0B"/>
<path d="M580.088 99.8354C579.048 96.6282 577.575 95.0657 576.795 90.3782C575.149 81.0033 575.756 72.0396 571.683 72.3685C570.036 72.533 569.516 74.1777 569.603 75.0823L570.903 89.8848C570.383 91.6118 569.43 90.9539 569.43 90.9539C569.43 90.9539 566.05 77.7961 565.617 75.4113C565.184 73.1086 563.971 71.7929 562.324 71.9573C559.464 72.204 560.591 75.4935 560.851 76.727L563.884 92.6809C564.144 94.2433 562.411 93.7499 562.411 93.7499L555.652 77.7961C554.872 76.0691 553.399 76.4803 553.399 76.4803C550.712 77.056 551.752 79.3586 551.752 79.3586L557.558 96.2992C557.558 96.3815 557.558 96.4637 557.558 96.546C557.645 97.4506 556.432 97.944 555.912 97.1216C554.092 94.4901 550.539 90.296 547.593 88.6513C546.12 87.8289 545.08 87.9934 544.473 88.4046C543.867 88.8158 543.78 89.5559 544.213 90.1315L555.045 105.016C557.558 120.806 567.697 122.697 567.697 122.697L573.763 145.23L582.688 180.756L583.815 185.279C584.854 189.637 589.014 192.762 593.693 192.762H598.459C601.839 192.762 604.178 189.637 603.139 186.677L581.561 124.342L580.608 118.914C582.688 116.694 584.074 112.006 584.768 108.635C585.201 106.825 585.374 104.934 585.201 103.125C584.854 98.6019 588.061 90.4605 588.061 90.4605C587.801 88.898 584.681 90.2138 584.681 90.2138C581.215 91.3651 580.348 96.6282 580.088 99.5065C580.002 100.74 579.395 101.809 578.529 102.631C573.329 107.483 572.896 112.911 572.896 112.911" stroke="#0C0B0B" stroke-width="2" stroke-miterlimit="10"/>
<path d="M565.53 75.4928C565.097 73.1902 564.317 71.4633 562.237 72.0389C559.464 72.779 560.504 75.5751 560.764 76.8086" stroke="#0C0B0B" stroke-width="2" stroke-miterlimit="10"/>
<path d="M734.161 197.285V198.107H715.27L711.284 177.137V198.107H629.482V186.183C629.482 183.304 629.482 180.426 629.568 177.548C627.749 178.946 625.756 180.097 623.416 181.331L605.305 192.844C605.218 192.926 605.132 192.926 605.045 193.008C604.265 193.42 603.399 193.666 602.445 193.666L598.679 193.802C598.679 193.802 602.705 192.35 603.659 188.732L597.159 168.173C606.431 160.854 621.423 139.719 650.192 135.361C651.405 135.114 652.705 134.867 654.092 134.703C655.392 134.538 656.691 134.374 658.164 134.292L659.118 134.209V134.374L658.598 134.456C658.771 134.456 658.858 134.456 659.031 134.374H659.118C659.291 134.374 659.464 134.374 659.638 134.292H659.724L660.591 134.209V137.334C660.591 137.746 660.764 138.239 661.197 138.65C662.497 140.048 665.444 141.117 668.996 141.364C669.603 141.446 670.21 141.446 670.816 141.446C670.903 141.446 670.989 141.446 670.989 141.446H671.076C674.542 141.364 677.749 140.459 679.395 139.144C679.915 138.732 680.435 138.157 680.435 137.334V134.456L681.301 134.621H681.475C681.735 134.621 681.908 134.703 682.168 134.703V134.456L683.294 134.621C715.097 138.321 734.161 161.759 734.161 197.285Z" fill="#0C0B0B"/>
<path d="M605.218 192.762L604.958 192.926C605.045 192.926 605.132 192.844 605.218 192.762Z" fill="#0C0B0B"/>
</g>
<defs>
<clipPath id="clip0_1_333">
<rect width="191.161" height="198.107" fill="white" transform="translate(543)"/>
</clipPath>
</defs>
</svg>
