<svg width="28" height="26" viewBox="0 0 28 26" fill="none" xmlns="http://www.w3.org/2000/svg">
<path d="M27.2479 11.3087C27.2472 11.3082 27.2466 11.3076 27.2459 11.307L15.823 0.701416C15.3361 0.249146 14.6888 0 14.0002 0C13.3116 0 12.6643 0.248947 12.1771 0.701218L0.760177 11.3014C0.756332 11.305 0.752486 11.3087 0.74864 11.3123C-0.251218 12.246 -0.249508 13.7609 0.753554 14.6922C1.21182 15.1179 1.81708 15.3645 2.46421 15.3903C2.49049 15.3927 2.51698 15.3939 2.54368 15.3939H2.99896V23.1989C2.99896 24.7434 4.3524 26 6.01627 26H10.4853C10.9382 26 11.3057 25.659 11.3057 25.2383V19.1191C11.3057 18.4144 11.9231 17.8411 12.6822 17.8411H15.3181C16.0772 17.8411 16.6947 18.4144 16.6947 19.1191V25.2383C16.6947 25.659 17.0619 26 17.5151 26H21.9841C23.6479 26 25.0014 24.7434 25.0014 23.1989V15.3939H25.4236C26.1119 15.3939 26.7593 15.1449 27.2466 14.6926C28.2507 13.7597 28.2511 12.2422 27.2479 11.3087Z" fill="white"/>
</svg>
