<svg width="32" height="36" viewBox="0 0 32 36" fill="none" xmlns="http://www.w3.org/2000/svg">
<path d="M23.4299 21.6458C22.9814 21.6458 22.6174 21.2818 22.6174 20.8333C22.6174 17.7219 21.4064 14.798 19.2072 12.5978C18.8898 12.2804 18.8898 11.7658 19.2072 11.4485C19.5245 11.1311 20.0391 11.1311 20.3567 11.4485C22.8624 13.9552 24.2424 17.2887 24.2424 20.8333C24.2424 21.2818 23.8784 21.6458 23.4299 21.6458Z" fill="#0C0B0B"/>
<path d="M1.22168 21.6458C0.773178 21.6458 0.40918 21.2818 0.40918 20.8333C0.40918 17.2887 1.7894 13.9552 4.29613 11.4494C4.61351 11.132 5.12827 11.132 5.44565 11.4494C5.76303 11.7668 5.76303 12.2816 5.44565 12.599C3.24539 14.798 2.03418 17.7219 2.03418 20.8333C2.03418 21.2818 1.67018 21.6458 1.22168 21.6458Z" fill="#0C0B0B"/>
<path d="M12.3258 36C10.0855 36 8.26331 34.1778 8.26331 31.9375C8.26331 31.489 8.6273 31.125 9.07581 31.125C9.52431 31.125 9.88831 31.489 9.88831 31.9375C9.88831 33.282 10.9813 34.375 12.3258 34.375C13.6701 34.375 14.7633 33.282 14.7633 31.9375C14.7633 31.489 15.1273 31.125 15.5758 31.125C16.0243 31.125 16.3883 31.489 16.3883 31.9375C16.3883 34.1778 14.5661 36 12.3258 36Z" fill="#0C0B0B"/>
<path d="M21.2633 32.75H3.38834C2.34276 32.75 1.49237 31.8996 1.49237 30.8542C1.49237 30.2994 1.73398 29.7741 2.1555 29.4133C3.80312 28.0212 4.74237 25.9977 4.74237 23.8538V20.8333C4.74237 16.6517 8.14412 13.25 12.3258 13.25C16.5074 13.25 19.9091 16.6517 19.9091 20.8333V23.8538C19.9091 25.9977 20.8484 28.0212 22.4853 29.4058C22.9175 29.7741 23.1591 30.2994 23.1591 30.8542C23.1591 31.8996 22.3087 32.75 21.2633 32.75ZM12.3258 14.875C9.03993 14.875 6.36737 17.5476 6.36737 20.8333V23.8538C6.36737 26.4763 5.21805 28.9529 3.21497 30.6461C3.17708 30.6787 3.11737 30.7459 3.11737 30.8542C3.11737 31.0014 3.24095 31.125 3.38834 31.125H21.2633C21.4105 31.125 21.5341 31.0014 21.5341 30.8542C21.5341 30.7459 21.4746 30.6787 21.4387 30.6483C19.4334 28.9529 18.2841 26.4763 18.2841 23.8538V20.8333C18.2841 17.5476 15.6115 14.875 12.3258 14.875Z" fill="#0C0B0B"/>
<path d="M12.3257 14.875C11.8772 14.875 11.5132 14.511 11.5132 14.0625V10.8125C11.5132 10.364 11.8772 10 12.3257 10C12.7742 10 13.1382 10.364 13.1382 10.8125V14.0625C13.1382 14.511 12.7742 14.875 12.3257 14.875Z" fill="#0C0B0B"/>
<path d="M31.0354 10.499C31.0354 14.9173 27.4537 18.499 23.0354 18.499C18.6171 18.499 15.0354 14.9173 15.0354 10.499C15.0354 6.08075 18.6171 2.49902 23.0354 2.49902C27.4537 2.49902 31.0354 6.08075 31.0354 10.499Z" fill="white"/>
<circle cx="23.0354" cy="10.499" r="7" fill="#F45B5B"/>
<path d="M23.6057 14H22.6975V7.97949L20.8762 8.64844V7.82812L23.4641 6.85645H23.6057V14Z" fill="white"/>
</svg>
