<svg width="41" height="41" viewBox="0 0 41 41" fill="none" xmlns="http://www.w3.org/2000/svg">
<mask id="path-1-inside-1_1_319" fill="white">
<path d="M39.1012 20.1696C39.8546 20.1696 40.4702 20.7811 40.4188 21.5328C40.164 25.2642 38.8667 28.8595 36.6618 31.9031C34.1894 35.3159 30.7022 37.8605 26.6978 39.1737C22.6934 40.4869 18.3765 40.5017 14.3632 39.216C10.35 37.9302 6.84538 35.4096 4.34968 32.0138C1.85397 28.6181 0.494677 24.5207 0.465802 20.3066C0.436926 16.0925 1.73994 11.9769 4.18888 8.54732C6.63782 5.11769 10.1075 2.54927 14.1028 1.20862C17.6659 0.013001 21.4845 -0.151633 25.1219 0.719206C25.8546 0.89463 26.2544 1.66475 26.0295 2.3838C25.8045 3.10285 25.04 3.49777 24.3055 3.33025C21.2189 2.62634 17.9887 2.78256 14.9708 3.79524C11.5205 4.953 8.52414 7.17104 6.40928 10.1328C4.29442 13.0946 3.16916 16.6487 3.1941 20.2879C3.21904 23.9272 4.3929 27.4655 6.54814 30.398C8.70339 33.3305 11.7299 35.5073 15.1957 36.6177C18.6615 37.7281 22.3895 37.7153 25.8476 36.5812C29.3057 35.4471 32.3172 33.2496 34.4523 30.3024C36.3198 27.7246 37.4334 24.6883 37.6831 21.5324C37.7426 20.7813 38.3477 20.1696 39.1012 20.1696Z"/>
</mask>
</svg>
