<svg width="9" height="6" viewBox="0 0 9 6" fill="none" xmlns="http://www.w3.org/2000/svg">
<path d="M4.78223 4.81745L7.75928 1.8404C7.94092 1.65877 7.94092 1.36419 7.75928 1.18255C7.57761 1.00088 7.2831 1.00088 7.10143 1.18255L4.91847 3.36551C4.91847 3.36551 4.6988 3.61152 4.45508 3.60635C4.21721 3.60132 3.98814 3.36551 3.98814 3.36551L1.80518 1.18263C1.62351 1.00095 1.329 1.00095 1.14733 1.18263C1.05657 1.27342 1.01109 1.39251 1.01109 1.51155C1.01109 1.6306 1.05657 1.74964 1.14733 1.84048L4.12438 4.81745C4.30605 4.99913 4.60056 4.99913 4.78223 4.81745Z" fill="#0C0B0B" stroke="#0C0B0B" stroke-width="0.5"/>
</svg>
