<svg width="17" height="17" viewBox="0 0 17 17" fill="none" xmlns="http://www.w3.org/2000/svg">
<path d="M8.04395 0.488068C3.63257 0.488068 0.0439453 4.07669 0.0439453 8.48807C0.0439453 12.8994 3.63257 16.4881 8.04395 16.4881C12.4553 16.4881 16.0439 12.8994 16.0439 8.48807C16.0439 4.07669 12.4553 0.488068 8.04395 0.488068ZM11.8486 12.626C11.7186 12.756 11.548 12.8214 11.3773 12.8214C11.2067 12.8214 11.0359 12.756 10.906 12.626L7.57263 9.29276C7.44727 9.16812 7.37732 8.99869 7.37732 8.82144V4.48807C7.37732 4.11942 7.6759 3.82144 8.04395 3.82144C8.41199 3.82144 8.71057 4.11942 8.71057 4.48807V8.54544L11.8486 11.6834C12.1093 11.9441 12.1093 12.3654 11.8486 12.626Z" fill="#0C0B0B"/>
</svg>
